<?xml version="1.0" encoding="UTF-8"?>
<svg version="1.1" xmlns="http://www.w3.org/2000/svg" width="657" height="657">
<path d="M0 0 C216.81 0 433.62 0 657 0 C657 216.81 657 433.62 657 657 C440.19 657 223.38 657 0 657 C0 440.19 0 223.38 0 0 Z " fill="#FEFEFE" transform="translate(0,0)"/>
<path d="M0 0 C0.66 0 1.32 0 2 0 C2 132.99 2 265.98 2 403 C-22.75 403 -47.5 403 -73 403 C-74.3088175 361.96251373 -75.394727 320.94519532 -76.01285444 279.89270524 C-76.08661769 275.01168556 -76.16298543 270.13070988 -76.2409668 265.24975586 C-76.25644311 264.2783293 -76.27191943 263.30690274 -76.28786472 262.30603901 C-76.54240924 246.71575394 -77.00619316 231.13872902 -77.55201497 215.55623033 C-78.11021348 199.4823574 -78.43274903 183.41525605 -78.55122119 167.3320964 C-78.62394087 158.32650149 -78.79489934 149.34835961 -79.23807335 140.35272789 C-80.82558898 107.17868944 -81.16990003 78.89530281 -57.8282863 53.1649201 C-45.29726327 39.72519269 -31.31821771 27.78416472 -16.95262492 16.36536944 C-11.15489112 11.72076245 -5.82863969 7.13416497 -1.2265625 1.28515625 C-0.82179688 0.86105469 -0.41703125 0.43695313 0 0 Z " fill="#645FCE" transform="translate(571,47)"/>
<path d="M0 0 C29.32291478 14.66145739 64.62726031 43.21905045 75.66188848 74.90033376 C82.65772125 97.5780079 82.60582911 122.51345638 82.77734375 146.02734375 C82.78345187 146.85491859 82.78955999 147.68249343 82.7958532 148.5351463 C82.92176177 169.17582004 82.37143095 189.78478527 81.57257648 210.40796061 C81.05888105 223.72449712 80.78694339 237.02617796 80.71069336 250.35229492 C80.70560967 251.23409252 80.70052598 252.11589013 80.69528823 253.02440887 C80.68518741 254.80174944 80.67509917 256.57909009 80.6650236 258.3564308 C80.65749656 259.67250864 80.65749656 259.67250864 80.64981747 261.01517391 C80.64488026 261.89081965 80.63994304 262.76646539 80.63485622 263.66864586 C80.54960148 277.38413902 80.28168414 291.09686273 79.98845549 304.80927057 C79.88485659 309.72135304 79.80380216 314.63315564 79.74003443 319.54590925 C78.89830803 382.37097957 78.89830803 382.37097957 65.88500977 395.17407227 C51 403 51 403 0 403 C0 270.01 0 137.02 0 0 Z " fill="#413670" transform="translate(88,47)"/>
<path d="M0 0 C0 93.72 0 187.44 0 284 C-24.75 284 -49.5 284 -75 284 C-76.2302881 257.29048029 -77.21968092 230.60463933 -77.79785728 203.8737545 C-78.07373794 191.45528547 -78.4491552 179.05611184 -79.07373047 166.64990234 C-83.54725057 76.04117264 -83.54725057 76.04117264 -59.48303413 49.35150337 C-48.83604161 38.06204874 -36.58654676 28.64009919 -23.7759285 19.95880508 C-17.06589942 15.22394283 -11.35571127 9.48394005 -5.6953125 3.56835938 C-2.2110892 0 -2.2110892 0 0 0 Z " fill="#837FD7" transform="translate(471,166)"/>
<path d="M0 0 C0.66 0 1.32 0 2 0 C2 65.67 2 131.34 2 199 C-22.75 199 -47.5 199 -73 199 C-74.97646621 179.62575096 -76.67273812 160.42480678 -77.5 141 C-77.53120359 140.28756999 -77.56240718 139.57513999 -77.59455633 138.8411212 C-79.05944359 104.4525227 -78.83966489 74.1027245 -54.63586044 47.09600449 C-49.08675887 41.14877247 -43.18716141 35.6595952 -37.0625 30.3125 C-36.20357147 29.56260803 -35.34464294 28.81271606 -34.45968628 28.0401001 C-25.21014284 20.04827419 -15.70125563 12.45227945 -5.6937027 5.42861938 C-2.32319861 3.20016091 -2.32319861 3.20016091 0 0 Z " fill="#A29FE2" transform="translate(367,250)"/>
<path d="M0 0 C0.66 0 1.32 0 2 0 C3.2971344 1.31590271 3.2971344 1.31590271 4.86157227 3.22827148 C9.98846628 9.25126852 15.62068905 14.76483785 21.21484375 20.34765625 C22.396513 21.53000077 23.57803391 22.71249357 24.75941467 23.89512634 C27.22462723 26.36180534 29.69161886 28.82668703 32.15991211 31.2902832 C35.30454484 34.42921932 38.44466556 37.57262471 41.58345699 40.71740055 C44.01904232 43.15662006 46.45702989 45.59342741 48.89572334 48.02953911 C50.05373839 49.18689277 51.21102693 50.34497387 52.36753654 51.50383186 C60.55036781 59.70355506 60.55036781 59.70355506 69.19581604 67.40989685 C69.79119675 67.93463089 70.38657745 68.45936493 71 69 C72.32457214 70.07729118 72.32457214 70.07729118 73.67590332 71.17634583 C76.66511663 74.80808143 76.73971602 77.71797503 76.72631836 82.22753906 C76.75150795 83.45052956 76.75150795 83.45052956 76.77720642 84.69822693 C76.82461365 87.38774955 76.83446389 90.07571082 76.83984375 92.765625 C76.85591971 94.64264559 76.87274106 96.51965993 76.89027405 98.39666748 C76.92019673 102.33083606 76.92947758 106.26445614 76.92651367 110.19873047 C76.92600626 115.22461697 76.99418612 120.24695951 77.08037472 125.27200699 C77.13616183 129.14994225 77.14610428 133.0270315 77.14346504 136.90532684 C77.14934086 138.75687603 77.17132179 140.60845053 77.21012688 142.45960236 C77.48214962 156.77938326 77.48214962 156.77938326 74.20474243 161.68972778 C71.60041571 164.01727716 68.8372642 165.96353037 66 168 C63.65390562 170.14223407 61.43317555 172.40158267 59.20507812 174.66552734 C57.95918162 175.90953084 56.71262268 177.15287118 55.4654541 178.39559937 C54.15392473 179.7089176 52.84252638 181.02236667 51.53125 182.3359375 C50.16042396 183.70608852 48.78944963 185.07609118 47.41833496 186.44595337 C44.56600183 189.29682233 41.71545997 192.14946676 38.86621094 195.00341797 C35.21344028 198.66192328 31.55614655 202.3158691 27.8975296 205.96852684 C25.07507759 208.78737085 22.25500464 211.60858523 19.43565369 214.43053055 C18.08716725 215.77968362 16.73793879 217.12809546 15.38795471 218.47574997 C13.50946356 220.3517066 11.63419875 222.23082967 9.75976562 224.11083984 C9.20292084 224.6656604 8.64607605 225.22048096 8.07235718 225.79211426 C5.77170845 228.10548404 3.81675327 230.2748701 2 233 C1.34 233 0.68 233 0 233 C0 156.11 0 79.22 0 0 Z " fill="#685F8C" transform="translate(190,150)"/>
<path d="M0 0 C0 32.34 0 64.68 0 98 C-32.34 98 -64.68 98 -98 98 C-96.21525699 94.43051397 -94.94194719 92.69097707 -92.2043457 89.95037842 C-91.41355621 89.15394928 -90.62276672 88.35752014 -89.80801392 87.53695679 C-88.93937714 86.67236847 -88.07074036 85.80778015 -87.17578125 84.91699219 C-86.26186615 83.99957245 -85.34795105 83.08215271 -84.40634155 82.13693237 C-81.90280956 79.62428947 -79.3930007 77.11800576 -76.88174057 74.61308956 C-74.25581186 71.9922245 -71.63476641 69.36648321 -69.01293945 66.74151611 C-64.61150255 62.33644192 -60.20586784 57.93559909 -55.79785156 53.53710938 C-50.69648441 48.44663982 -45.60238056 43.34898692 -40.51196384 38.24756885 C-36.14362843 33.8701699 -31.77142312 29.49666497 -27.3959341 25.12641644 C-24.78145779 22.51506325 -22.1683637 19.90236546 -19.55874634 17.2861557 C-16.65292697 14.37350865 -13.73903738 11.46907071 -10.82421875 8.56542969 C-9.95558197 7.69274445 -9.08694519 6.8200592 -8.19198608 5.92092896 C-7.40119659 5.13577911 -6.6104071 4.35062927 -5.7956543 3.54168701 C-5.1069072 2.85369396 -4.4181601 2.16570091 -3.70854187 1.45685959 C-2 0 -2 0 0 0 Z " fill="#766EA2" transform="translate(267,352)"/>
<path d="M0 0 C45.21 0 90.42 0 137 0 C134.86128017 4.27743966 132.19678816 7.10588733 128.86962891 10.43676758 C128.24177994 11.07294006 127.61393097 11.70911255 126.96705627 12.36456299 C124.8923347 14.46336013 122.81004914 16.55443713 120.7265625 18.64453125 C119.28160955 20.09844862 117.83673554 21.55244444 116.39193726 23.0065155 C113.3642972 26.05063882 110.33229625 29.0903461 107.29785156 32.12768555 C103.40294797 36.0279884 99.5244758 39.94420827 95.64974403 43.86453724 C92.67281226 46.87114008 89.68476086 49.86649756 86.69346237 52.85880089 C85.25799383 54.29848742 83.82666476 55.74231328 82.39952469 57.19025612 C80.40763699 59.20886484 78.40071039 61.2112167 76.38916016 63.21020508 C75.79888535 63.81531418 75.20861053 64.42042328 74.60044861 65.04386902 C72.93521118 66.67951965 72.93521118 66.67951965 70 69 C65.28738757 68.54758262 62.64849233 65.06089402 59.48730469 61.85961914 C58.84298492 61.21895004 58.19866516 60.57828094 57.53482056 59.91819763 C55.40636801 57.7978536 53.28896724 55.66683872 51.171875 53.53515625 C49.69836664 52.06112942 48.22434027 50.58762024 46.74981689 49.11460876 C43.66179483 46.02649697 40.57900984 42.9332786 37.5 39.83618164 C33.54483209 35.85829693 29.57865547 31.89161119 25.60874557 27.92844486 C22.56471929 24.88775259 19.52568834 21.84210872 16.48825836 18.79482841 C15.02709092 17.32980113 13.5645597 15.86613277 12.10066986 14.40382576 C10.06050393 12.36402887 8.02693292 10.31788534 5.99511719 8.26977539 C5.38425262 7.66138824 4.77338806 7.0530011 4.14401245 6.42617798 C0 2.22874119 0 2.22874119 0 0 Z " fill="#7A72A9" transform="translate(262,46)"/>
<path d="M0 0 C0.66 0 1.32 0 2 0 C2 132.99 2 265.98 2 403 C-22.75 403 -47.5 403 -73 403 C-74.3088175 361.96251373 -75.394727 320.94519532 -76.01285444 279.89270524 C-76.08661769 275.01168556 -76.16298543 270.13070988 -76.2409668 265.24975586 C-76.25644311 264.2783293 -76.27191943 263.30690274 -76.28786472 262.30603901 C-76.54240924 246.71575394 -77.00619316 231.13872902 -77.55201497 215.55623033 C-78.11021348 199.4823574 -78.43274903 183.41525605 -78.55122119 167.3320964 C-78.62394087 158.32650149 -78.79489934 149.34835961 -79.23807335 140.35272789 C-80.82558898 107.17868944 -81.16990003 78.89530281 -57.8282863 53.1649201 C-45.29726327 39.72519269 -31.31821771 27.78416472 -16.95262492 16.36536944 C-11.15489112 11.72076245 -5.82863969 7.13416497 -1.2265625 1.28515625 C-0.82179688 0.86105469 -0.41703125 0.43695313 0 0 Z M-45.97058105 37.78491211 C-78.74495326 71.10978404 -79.1654392 109.32343227 -79.03125 153.5625 C-79.02928431 154.4553558 -79.02731861 155.34821159 -79.02529335 156.26812363 C-78.95773242 179.47498325 -78.18809748 202.64294786 -77.1859169 225.82586861 C-76.61000492 239.29712818 -76.22055484 252.76475734 -75.95507812 266.24560547 C-75.93616203 267.20343693 -75.91724594 268.16126839 -75.89775664 269.14812505 C-75.80375016 273.95638469 -75.71277375 278.764696 -75.6232996 283.57304192 C-74.88439907 323.07325433 -73.562133 362.52209523 -72 402 C-47.91 402 -23.82 402 1 402 C1 270.33 1 138.66 1 3 C-12.9178325 3 -36.74857313 28.8816969 -45.97058105 37.78491211 Z " fill="#8E8AD9" transform="translate(571,47)"/>
<path d="M0 0 C0.99 0 1.98 0 3 0 C10.17137552 18.1525443 16.98342327 36.42960452 23 55 C25.84846343 51.4471611 26.80522549 48.40573099 28 44 C28.7046487 42.3664962 29.41039619 40.73335775 30.13671875 39.109375 C32.02101889 34.50520271 33.4695789 29.73109872 35 25 C35.66 25 36.32 25 37 25 C44.57446809 44.34042553 44.57446809 44.34042553 48 54 C51.30824217 52.34587892 51.80538535 48.69271692 53 45.375 C53.26039063 44.67503906 53.52078125 43.97507812 53.7890625 43.25390625 C54.98728873 39.99206819 56.06570922 36.76437084 57 33.4140625 C58.06242015 29.78689371 59.5092153 26.47091095 61 23 C61.92256138 20.29093347 62.74612909 17.55519721 63.5625 14.8125 C64.79251124 10.68834465 66.06407022 6.87185956 68 3 C48.53 3 29.06 3 9 3 C9 2.01 9 1.02 9 0 C29.79 0 50.58 0 72 0 C71.24858068 5.25993521 70.30008151 9.55369678 68.5 14.4375 C68.24226807 15.15196289 67.98453613 15.86642578 67.71899414 16.60253906 C66.82292856 19.07225309 65.91332739 21.53661772 65 24 C64.64276855 24.96373535 64.28553711 25.9274707 63.91748047 26.92041016 C61.63525588 33.06140247 59.32947804 39.19320775 57.01025391 45.3203125 C56.13673828 47.63730321 55.27401838 49.95776745 54.41796875 52.28125 C53.99128906 53.4259375 53.56460938 54.570625 53.125 55.75 C52.77695312 56.69359375 52.42890625 57.6371875 52.0703125 58.609375 C50.97942163 61.04596336 49.68545907 62.93892433 48 65 C47.67386719 64.05898438 47.34773438 63.11796875 47.01171875 62.1484375 C46.57472656 60.90320313 46.13773437 59.65796875 45.6875 58.375 C45.25824219 57.14523437 44.82898438 55.91546875 44.38671875 54.6484375 C43.11230573 51.29547478 41.65007873 48.18065315 40 45 C38.72596449 42.02725049 37.70171051 39.15769729 37 36 C36.34 36 35.68 36 35 36 C34.86464844 36.58523438 34.72929687 37.17046875 34.58984375 37.7734375 C32.23424185 47.16763431 28.60158833 56.03056495 25 65 C24.34 65 23.68 65 23 65 C22.78085937 64.37996094 22.56171875 63.75992188 22.3359375 63.12109375 C19.42654878 54.99609354 16.23314697 46.99972935 13 39 C12.64164062 38.08347656 12.28328125 37.16695312 11.9140625 36.22265625 C11.00011191 33.8753447 11.00011191 33.8753447 9.5 31.3125 C8.20912479 28.46181725 7.64324654 26.45897514 7.125 23.4375 C6.15819743 17.98374189 4.21885075 13.09102809 2.12109375 7.98046875 C1.11391344 5.30284306 0.46319448 2.81559791 0 0 Z " fill="#3B3A40" transform="translate(409,546)"/>
<path d="M0 0 C0.99 0 1.98 0 3 0 C10.17137552 18.1525443 16.98342327 36.42960452 23 55 C25.84846343 51.4471611 26.80522549 48.40573099 28 44 C28.7046487 42.3664962 29.41039619 40.73335775 30.13671875 39.109375 C32.02101889 34.50520271 33.4695789 29.73109872 35 25 C35.66 25 36.32 25 37 25 C44.57446809 44.34042553 44.57446809 44.34042553 48 54 C51.30824217 52.34587892 51.80538535 48.69271692 53 45.375 C53.26039062 44.67503906 53.52078125 43.97507812 53.7890625 43.25390625 C54.98728873 39.99206819 56.06570922 36.76437084 57 33.4140625 C58.06242015 29.78689371 59.5092153 26.47091095 61 23 C61.92256138 20.29093347 62.74612909 17.55519721 63.5625 14.8125 C64.79251124 10.68834465 66.06407022 6.87185956 68 3 C48.53 3 29.06 3 9 3 C9 2.01 9 1.02 9 0 C29.79 0 50.58 0 72 0 C71.24858068 5.25993521 70.30008151 9.55369678 68.5 14.4375 C68.24226807 15.15196289 67.98453613 15.86642578 67.71899414 16.60253906 C66.82292856 19.07225309 65.91332739 21.53661772 65 24 C64.64276855 24.96373535 64.28553711 25.9274707 63.91748047 26.92041016 C61.63525588 33.06140247 59.32947804 39.19320775 57.01025391 45.3203125 C56.13673828 47.63730321 55.27401838 49.95776745 54.41796875 52.28125 C53.99128906 53.4259375 53.56460938 54.570625 53.125 55.75 C52.77695313 56.69359375 52.42890625 57.6371875 52.0703125 58.609375 C50.97942163 61.04596336 49.68545907 62.93892433 48 65 C47.67386719 64.05898438 47.34773438 63.11796875 47.01171875 62.1484375 C46.57472656 60.90320313 46.13773438 59.65796875 45.6875 58.375 C45.25824219 57.14523437 44.82898438 55.91546875 44.38671875 54.6484375 C43.11230573 51.29547478 41.65007873 48.18065315 40 45 C38.72596449 42.02725049 37.70171051 39.15769729 37 36 C36.34 36 35.68 36 35 36 C34.86464844 36.58523438 34.72929688 37.17046875 34.58984375 37.7734375 C32.23424185 47.16763431 28.60158833 56.03056495 25 65 C24.34 65 23.68 65 23 65 C22.78085937 64.37996094 22.56171875 63.75992188 22.3359375 63.12109375 C19.42654878 54.99609354 16.23314697 46.99972935 13 39 C12.64164063 38.08347656 12.28328125 37.16695312 11.9140625 36.22265625 C11.00011191 33.8753447 11.00011191 33.8753447 9.5 31.3125 C8.20912479 28.46181725 7.64324654 26.45897514 7.125 23.4375 C6.15819743 17.98374189 4.21885075 13.09102809 2.12109375 7.98046875 C1.11391344 5.30284306 0.46319448 2.81559791 0 0 Z " fill="#3B3A40" transform="translate(27,546)"/>
<path d="M0 0 C0 93.72 0 187.44 0 284 C-24.75 284 -49.5 284 -75 284 C-76.2302881 257.29048029 -77.21968092 230.60463933 -77.79785728 203.8737545 C-78.07373794 191.45528547 -78.4491552 179.05611184 -79.07373047 166.64990234 C-83.54725057 76.04117264 -83.54725057 76.04117264 -59.48303413 49.35150337 C-48.83604161 38.06204874 -36.58654676 28.64009919 -23.7759285 19.95880508 C-17.06589942 15.22394283 -11.35571127 9.48394005 -5.6953125 3.56835938 C-2.2110892 0 -2.2110892 0 0 0 Z M-47.97058105 40.83776855 C-74.78231763 67.94847669 -81.16808087 92.53749119 -81.01741028 129.96953964 C-80.89962275 143.9539898 -80.15778905 157.87731877 -79.1859169 171.82539654 C-78.36204437 183.87142448 -77.98078494 195.92145569 -77.6232996 207.98888493 C-76.88204508 232.69796633 -75.57030433 257.32877415 -74 282 C-49.91 282 -25.82 282 -1 282 C-1 189.6 -1 97.2 -1 2 C-13.72117413 2 -39.35435594 32.4072829 -47.97058105 40.83776855 Z " fill="#9E9BDE" transform="translate(471,166)"/>
<path d="M0 0 C5.17779459 4.43810964 10.13919954 8.86842723 15 13.625 C15.69222656 14.27984375 16.38445312 14.9346875 17.09765625 15.609375 C17.74605469 16.24617188 18.39445312 16.88296875 19.0625 17.5390625 C19.65160156 18.10834473 20.24070312 18.67762695 20.84765625 19.26416016 C22 21 22 21 21.94506836 22.93212891 C20.68096663 25.69806578 18.97057938 27.40095541 16.81640625 29.546875 C15.97142578 30.39121094 15.12644531 31.23554688 14.25585938 32.10546875 C13.36705078 32.97816406 12.47824219 33.85085938 11.5625 34.75 C10.67755859 35.63816406 9.79261719 36.52632813 8.88085938 37.44140625 C2.26685508 44 2.26685508 44 0 44 C0 29.48 0 14.96 0 0 Z " fill="#857EAD" transform="translate(293,239)"/>
<path d="M0 0 C1.18915385 1.05489454 2.32909444 2.16503194 3.453125 3.2890625 C3.13214213 6.60200491 1.97794526 8.08017951 -0.53125 10.1640625 C-1.13710938 10.67453125 -1.74296875 11.185 -2.3671875 11.7109375 C-3.32238281 12.49210938 -3.32238281 12.49210938 -4.296875 13.2890625 C-4.91820312 13.80984375 -5.53953125 14.330625 -6.1796875 14.8671875 C-7.95887275 16.35359543 -9.75192004 17.8217744 -11.546875 19.2890625 C-12.48015625 20.0728125 -13.4134375 20.8565625 -14.375 21.6640625 C-16.546875 23.2890625 -16.546875 23.2890625 -18.546875 23.2890625 C-18.546875 23.9490625 -18.546875 24.6090625 -18.546875 25.2890625 C-20.196875 25.2890625 -21.846875 25.2890625 -23.546875 25.2890625 C-23.546875 24.6290625 -23.546875 23.9690625 -23.546875 23.2890625 C-21.74609375 21.66015625 -21.74609375 21.66015625 -19.234375 19.7265625 C-14.32999573 15.91360002 -9.55129715 11.97459931 -4.796875 7.9765625 C-2.546875 6.2890625 -2.546875 6.2890625 -0.546875 6.2890625 C-1.041875 4.8040625 -1.041875 4.8040625 -1.546875 3.2890625 C-8.88433428 -0.31296296 -15.46484866 -0.50100711 -23.421875 1.0390625 C-27.69451918 2.74812017 -29.73552666 4.48769345 -31.62890625 8.69140625 C-32.94244416 13.83935697 -32.91540079 18.80889418 -32.921875 24.1015625 C-32.94636719 25.14376953 -32.97085938 26.18597656 -32.99609375 27.25976562 C-33.02397216 34.66148279 -32.0881713 41.25787725 -27.05029297 46.99267578 C-23.36649635 50.16918764 -17.6473038 49.51415435 -13.046875 49.6015625 C-11.7578125 49.63894531 -10.46875 49.67632813 -9.140625 49.71484375 C-5.00363448 49.22470031 -3.62735851 47.95194525 -0.546875 45.2890625 C0.443125 45.6190625 1.433125 45.9490625 2.453125 46.2890625 C1.24087352 49.92581694 0.4406882 50.22389736 -2.859375 51.9765625 C-9.98030112 55.34856042 -17.39573193 55.51025858 -24.921875 53.2265625 C-29.89550109 51.00342402 -33.20355508 47.2338376 -35.45019531 42.30883789 C-37.50851456 36.41945491 -38.0544697 31.06964099 -37.984375 24.8515625 C-37.97825195 23.92794922 -37.97212891 23.00433594 -37.96582031 22.05273438 C-37.75976407 13.09404281 -35.94066301 5.88910174 -29.546875 -0.7109375 C-21.49449294 -6.07919221 -7.71701116 -5.73743004 0 0 Z " fill="#2E2D32" transform="translate(627.546875,559.7109375)"/>
<path d="M0 0 C1.18915385 1.05489454 2.32909444 2.16503194 3.453125 3.2890625 C3.13214213 6.60200491 1.97794526 8.08017951 -0.53125 10.1640625 C-1.13710937 10.67453125 -1.74296875 11.185 -2.3671875 11.7109375 C-3.32238281 12.49210938 -3.32238281 12.49210938 -4.296875 13.2890625 C-4.91820312 13.80984375 -5.53953125 14.330625 -6.1796875 14.8671875 C-7.95887275 16.35359543 -9.75192004 17.8217744 -11.546875 19.2890625 C-12.48015625 20.0728125 -13.4134375 20.8565625 -14.375 21.6640625 C-16.546875 23.2890625 -16.546875 23.2890625 -18.546875 23.2890625 C-18.546875 23.9490625 -18.546875 24.6090625 -18.546875 25.2890625 C-20.196875 25.2890625 -21.846875 25.2890625 -23.546875 25.2890625 C-23.546875 24.6290625 -23.546875 23.9690625 -23.546875 23.2890625 C-21.74609375 21.66015625 -21.74609375 21.66015625 -19.234375 19.7265625 C-14.32999573 15.91360002 -9.55129715 11.97459931 -4.796875 7.9765625 C-2.546875 6.2890625 -2.546875 6.2890625 -0.546875 6.2890625 C-1.041875 4.8040625 -1.041875 4.8040625 -1.546875 3.2890625 C-8.88433428 -0.31296296 -15.46484866 -0.50100711 -23.421875 1.0390625 C-27.69451918 2.74812017 -29.73552666 4.48769345 -31.62890625 8.69140625 C-32.94244416 13.83935697 -32.91540079 18.80889418 -32.921875 24.1015625 C-32.94636719 25.14376953 -32.97085938 26.18597656 -32.99609375 27.25976562 C-33.02397216 34.66148279 -32.0881713 41.25787725 -27.05029297 46.99267578 C-23.36649635 50.16918764 -17.6473038 49.51415435 -13.046875 49.6015625 C-11.7578125 49.63894531 -10.46875 49.67632813 -9.140625 49.71484375 C-5.00363448 49.22470031 -3.62735851 47.95194525 -0.546875 45.2890625 C0.443125 45.6190625 1.433125 45.9490625 2.453125 46.2890625 C1.24087352 49.92581694 0.4406882 50.22389736 -2.859375 51.9765625 C-9.98030112 55.34856042 -17.39573193 55.51025858 -24.921875 53.2265625 C-29.89550109 51.00342402 -33.20355508 47.2338376 -35.45019531 42.30883789 C-37.50851456 36.41945491 -38.0544697 31.06964099 -37.984375 24.8515625 C-37.97825195 23.92794922 -37.97212891 23.00433594 -37.96582031 22.05273438 C-37.75976407 13.09404281 -35.94066301 5.88910174 -29.546875 -0.7109375 C-21.49449294 -6.07919221 -7.71701116 -5.73743004 0 0 Z " fill="#2E2D32" transform="translate(154.546875,559.7109375)"/>
<path d="M0 0 C0 0.99 0 1.98 0 3 C-2.44966059 2.41208146 -4.79254042 1.73581986 -7.1875 0.9375 C-14.59242026 -0.88338203 -22.1607872 -0.80986549 -28.9375 3.125 C-30.74047048 6.3067126 -30.57508408 9.50322437 -30 13 C-28.67914441 16.48134876 -28.67914441 16.48134876 -26 19 C-23.26472392 19.89518126 -20.80620418 20.46717642 -18 21 C-8.84193991 23.12763012 -2.34245623 25.88782821 4 33 C5.53214888 36.06429776 5.22938548 38.6165642 5 42 C2.79710067 47.14009845 -1.29325152 50.66057807 -6.2734375 53.125 C-13.92372897 55.58010786 -22.8144743 54.58908764 -30.328125 52.046875 C-32.46801537 50.70694365 -33.0664639 49.30526261 -34 47 C-33.47535156 47.144375 -32.95070313 47.28875 -32.41015625 47.4375 C-26.63685796 48.82078611 -21.03745106 49.24685519 -15.125 49.3125 C-14.38773682 49.32990234 -13.65047363 49.34730469 -12.89086914 49.36523438 C-8.56627384 49.36127458 -6.2015713 48.93090706 -3 46 C-2.34 46 -1.68 46 -1 46 C0.20901009 42.37296974 0.78660475 38.75982637 0 35 C-3.73220058 29.45471335 -11.05572682 28.56004568 -17.11523438 26.8203125 C-24.55123482 24.53719083 -29.63986292 21.54020562 -34 15 C-34.74725838 9.98943589 -35.11818199 4.67906743 -32 0.4375 C-23.16416325 -6.74161736 -9.2587464 -5.80940951 0 0 Z " fill="#434249" transform="translate(565,560)"/>
<path d="M0 0 C3 1 3 1 4.17578125 3.01171875 C4.55089844 3.89472656 4.92601562 4.77773438 5.3125 5.6875 C5.74046875 6.68007813 6.1684375 7.67265625 6.609375 8.6953125 C7.06828125 9.78585937 7.5271875 10.87640625 8 12 C8.50015625 13.15242187 9.0003125 14.30484375 9.515625 15.4921875 C12.94069699 23.39753043 16.23772037 31.33986845 19.28515625 39.3984375 C19.72730469 40.56632813 20.16945312 41.73421875 20.625 42.9375 C21.02976563 44.01902344 21.43453125 45.10054687 21.8515625 46.21484375 C22.95055772 49.13777126 22.95055772 49.13777126 25 52 C25 53.32 25 54.64 25 56 C13.45 56 1.9 56 -10 56 C-10 55.01 -10 54.02 -10 53 C0.23 53 10.46 53 21 53 C21 52.01 21 51.02 21 50 C20.34 50 19.68 50 19 50 C18.18710947 47.72930578 17.37467262 45.45845099 16.5625 43.1875 C16.33240234 42.54490234 16.10230469 41.90230469 15.86523438 41.24023438 C14.88582149 38.50071717 13.92004638 35.76013914 13 33 C12.34 33 11.68 33 11 33 C10.81824219 32.27554688 10.63648438 31.55109375 10.44921875 30.8046875 C9.07423349 25.51628264 7.58115996 20.83967492 5 16 C4.46490235 14.56774858 3.94463047 13.12989117 3.4375 11.6875 C2.45463206 7.94776881 2.45463206 7.94776881 0 7 C-0.0928125 8.36125 -0.0928125 8.36125 -0.1875 9.75 C-0.68563688 13.18577974 -1.76534532 16.09163387 -3.125 19.28125 C-3.57447998 20.33924805 -4.02395996 21.39724609 -4.48706055 22.48730469 C-4.98633057 23.64649414 -5.48560059 24.80568359 -6 26 C-6.264711 26.61572876 -6.529422 27.23145752 -6.80215454 27.86584473 C-8.7949285 32.49854538 -10.8023506 37.12481835 -12.8125 41.75 C-13.41609542 43.14059037 -14.0196115 44.53121517 -14.62304688 45.921875 C-16.08112007 49.28164612 -17.54025495 52.64095486 -19 56 C-19.99 56 -20.98 56 -22 56 C-20.57482176 47.55855966 -16.90784874 39.55430679 -12.9609375 32.0078125 C-11.40098127 28.74839176 -10.27136279 25.34205201 -9.0703125 21.9375 C-7.22886183 16.88359161 -5.10820901 11.94726381 -3 7 C-2.67515625 6.236875 -2.3503125 5.47375 -2.015625 4.6875 C-1.34715781 3.12353904 -0.67427022 1.56146788 0 0 Z " fill="#2F2E33" transform="translate(198,557)"/>
<path d="M0 0 C0.66 0 1.32 0 2 0 C2 8.25 2 16.5 2 25 C11.9 25 21.8 25 32 25 C32 16.75 32 8.5 32 0 C32.99 0 33.98 0 35 0 C35 18.48 35 36.96 35 56 C33.68 56 32.36 56 31 56 C31 46.76 31 37.52 31 28 C21.43 28 11.86 28 2 28 C2 36.91 2 45.82 2 55 C1.34 55 0.68 55 0 55 C0 36.85 0 18.7 0 0 Z " fill="#2C2B2C" transform="translate(354,557)"/>
<path d="M0 0 C20.79 0 41.58 0 63 0 C62.24856526 5.2600432 61.29988601 9.55354637 59.5 14.4375 C59.24444336 15.14688721 58.98888672 15.85627441 58.72558594 16.5871582 C55.9115136 24.35054196 52.99417586 32.07722089 50.07226562 39.80053711 C48.29313607 44.50801146 46.53547387 49.20572785 45 54 C44.01 53.67 43.02 53.34 42 53 C42.51885106 48.07091493 44.13884837 43.98156219 46.0234375 39.453125 C47.25348395 36.36324833 48.09486758 33.19813456 49 30 C49.46148437 28.94554687 49.92296875 27.89109375 50.3984375 26.8046875 C52.10284501 22.89348275 53.34661591 18.89741026 54.5625 14.8125 C55.79251124 10.68834465 57.06407022 6.87185956 59 3 C39.53 3 20.06 3 0 3 C0 2.01 0 1.02 0 0 Z " fill="#565558" transform="translate(418,546)"/>
<path d="M0 0 C20.79 0 41.58 0 63 0 C62.24856526 5.2600432 61.29988601 9.55354637 59.5 14.4375 C59.24444336 15.14688721 58.98888672 15.85627441 58.72558594 16.5871582 C55.9115136 24.35054196 52.99417586 32.07722089 50.07226562 39.80053711 C48.29313607 44.50801146 46.53547387 49.20572785 45 54 C44.01 53.67 43.02 53.34 42 53 C42.51885106 48.07091493 44.13884837 43.98156219 46.0234375 39.453125 C47.25348395 36.36324833 48.09486758 33.19813456 49 30 C49.46148437 28.94554687 49.92296875 27.89109375 50.3984375 26.8046875 C52.10284501 22.89348275 53.34661591 18.89741026 54.5625 14.8125 C55.79251124 10.68834465 57.06407022 6.87185956 59 3 C39.53 3 20.06 3 0 3 C0 2.01 0 1.02 0 0 Z " fill="#565558" transform="translate(36,546)"/>
<path d="M0 0 C0.99 0 1.98 0 3 0 C3 17.49 3 34.98 3 53 C12.57 53 22.14 53 32 53 C32 54.32 32 55.64 32 57 C21.11 57 10.22 57 -1 57 C-1.02094604 49.72241539 -1.04098406 42.44493937 -1.05175018 35.16735077 C-1.05703969 31.77862769 -1.0641128 28.38992944 -1.07543945 25.0012207 C-1.08834267 21.11670223 -1.09322924 17.23219403 -1.09765625 13.34765625 C-1.10281754 12.12788589 -1.10797882 10.90811554 -1.11329651 9.65138245 C-1.11337204 8.53029587 -1.11344757 7.40920929 -1.11352539 6.25415039 C-1.115746 5.26153702 -1.11796661 4.26892365 -1.12025452 3.24623108 C-1 1 -1 1 0 0 Z " fill="#828282" transform="translate(245,556)"/>
<path d="M0 0 C14.19 0 28.38 0 43 0 C43 0.66 43 1.32 43 2 C36.73 2 30.46 2 24 2 C24 19.82 24 37.64 24 56 C22.68 56 21.36 56 20 56 C20 38.51 20 21.02 20 3 C13.4 3 6.8 3 0 3 C0 2.01 0 1.02 0 0 Z " fill="#363636" transform="translate(289,557)"/>
<path d="M0 0 C0.99 0 1.98 0 3 0 C3 18.81 3 37.62 3 57 C1.68 57 0.36 57 -1 57 C-1.02312916 49.71578452 -1.04091801 42.4315769 -1.05181217 35.14733219 C-1.05703975 31.76528187 -1.06413511 28.3832566 -1.07543945 25.0012207 C-1.08834267 21.11670223 -1.09322924 17.23219403 -1.09765625 13.34765625 C-1.10281754 12.12788589 -1.10797882 10.90811554 -1.11329651 9.65138245 C-1.11337204 8.53029587 -1.11344757 7.40920929 -1.11352539 6.25415039 C-1.115746 5.26153702 -1.11796661 4.26892365 -1.12025452 3.24623108 C-1 1 -1 1 0 0 Z " fill="#464646" transform="translate(503,556)"/>
<path d="M0 0 C0.33 0 0.66 0 1 0 C1 6.27 1 12.54 1 19 C1.66 19 2.32 19 3 19 C3 12.73 3 6.46 3 0 C3.33 0 3.66 0 4 0 C4.0093457 0.61931396 4.01869141 1.23862793 4.02832031 1.87670898 C4.08259263 4.73106035 4.16612337 7.58387108 4.25 10.4375 C4.26417969 11.41138672 4.27835938 12.38527344 4.29296875 13.38867188 C4.53246694 20.54966771 5.63006338 27.15461837 10.49511719 32.70605469 C14.18392263 35.87780499 19.89782483 35.22505867 24.5 35.3125 C25.7890625 35.34988281 27.078125 35.38726563 28.40625 35.42578125 C32.54324052 34.93563781 33.91951649 33.66288275 37 31 C37.99 31.33 38.98 31.66 40 32 C38.78774852 35.63675444 37.9875632 35.93483486 34.6875 37.6875 C27.56657388 41.05949792 20.15114307 41.22119608 12.625 38.9375 C7.648686 36.71316006 4.37253951 32.94677179 2.08789062 28.04174805 C-0.09076612 21.91534812 -0.36287519 16.39940123 -0.1875 9.9375 C-0.17396484 8.97650391 -0.16042969 8.01550781 -0.14648438 7.02539062 C-0.11152306 4.68298248 -0.06246104 2.34180844 0 0 Z " fill="#5B5A60" transform="translate(590,574)"/>
<path d="M0 0 C0.33 0 0.66 0 1 0 C1 6.27 1 12.54 1 19 C1.66 19 2.32 19 3 19 C3 12.73 3 6.46 3 0 C3.33 0 3.66 0 4 0 C4.0093457 0.61931396 4.01869141 1.23862793 4.02832031 1.87670898 C4.08259263 4.73106035 4.16612337 7.58387108 4.25 10.4375 C4.26417969 11.41138672 4.27835937 12.38527344 4.29296875 13.38867188 C4.53246694 20.54966771 5.63006338 27.15461837 10.49511719 32.70605469 C14.18392263 35.87780499 19.89782483 35.22505867 24.5 35.3125 C25.7890625 35.34988281 27.078125 35.38726563 28.40625 35.42578125 C32.54324052 34.93563781 33.91951649 33.66288275 37 31 C37.99 31.33 38.98 31.66 40 32 C38.78774852 35.63675444 37.9875632 35.93483486 34.6875 37.6875 C27.56657388 41.05949792 20.15114307 41.22119608 12.625 38.9375 C7.648686 36.71316006 4.37253951 32.94677179 2.08789062 28.04174805 C-0.09076612 21.91534812 -0.36287519 16.39940123 -0.1875 9.9375 C-0.17396484 8.97650391 -0.16042969 8.01550781 -0.14648438 7.02539062 C-0.11152306 4.68298248 -0.06246104 2.34180844 0 0 Z " fill="#5B5A60" transform="translate(117,574)"/>
<path d="M0 0 C0.99 0.495 0.99 0.495 2 1 C-21.76 24.76 -45.52 48.52 -70 73 C-70.33 72.01 -70.66 71.02 -71 70 C-63.57889499 62.55564736 -56.1550336 55.11405548 -48.72771454 47.67590237 C-45.2783991 44.22138516 -41.83001309 40.76595103 -38.38378906 37.30834961 C-35.05327334 33.96690835 -31.72026694 30.62796975 -28.38557434 27.2906971 C-27.11855958 26.02184543 -25.85242007 24.75211912 -24.58720398 23.48147392 C-12.57066211 11.41545883 -12.57066211 11.41545883 -6.56945801 6.34803772 C-4.24806704 4.35415029 -2.12942857 2.19597321 0 0 Z " fill="#7F7BD6" transform="translate(570,49)"/>
<path d="M0 0 C0.66 0 1.32 0 2 0 C2 17.49 2 34.98 2 53 C11.57 53 21.14 53 31 53 C31 53.66 31 54.32 31 55 C20.77 55 10.54 55 0 55 C0 36.85 0 18.7 0 0 Z " fill="#050505" transform="translate(245,557)"/>
<path d="M0 0 C2 3 2 3 1.83618164 5.1784668 C0.71292852 8.96866718 -0.79867225 12.52466569 -2.37890625 16.14453125 C-2.71043198 16.91431808 -3.0419577 17.68410492 -3.38352966 18.47721863 C-4.43865243 20.9243 -5.50046897 23.36841004 -6.5625 25.8125 C-7.28104324 27.47571959 -7.99914716 29.13912905 -8.71679688 30.80273438 C-10.47278311 34.8707066 -12.23477652 38.93602809 -14 43 C-14.99 43 -15.98 43 -17 43 C-15.57701207 34.57153303 -11.9246173 26.56015873 -7.96875 19.03125 C-6.35460836 15.64675946 -5.19266724 12.10015906 -3.94921875 8.56640625 C-2.83884405 5.56428206 -1.52028557 2.8125283 0 0 Z " fill="#3A393E" transform="translate(193,570)"/>
<path d="M0 0 C45.21 0 90.42 0 137 0 C136.34 1.32 135.68 2.64 135 4 C134.67 3.01 134.34 2.02 134 1 C67.67 1.495 67.67 1.495 0 2 C0 1.34 0 0.68 0 0 Z " fill="#9D97B9" transform="translate(262,46)"/>
<path d="M0 0 C-0.61746094 0.03738281 -1.23492188 0.07476563 -1.87109375 0.11328125 C-8.84521873 0.65465168 -15.5579827 1.55435613 -21.375 5.6875 C-25.81230331 12.00212393 -26.4863198 18.5160964 -26.6875 26 C-26.72166016 26.87011719 -26.75582031 27.74023438 -26.79101562 28.63671875 C-26.87257983 30.75738815 -26.93798528 32.87866891 -27 35 C-27.66 35 -28.32 35 -29 35 C-29.08845016 31.85434954 -29.14086835 28.70902625 -29.1875 25.5625 C-29.21263672 24.68400391 -29.23777344 23.80550781 -29.26367188 22.90039062 C-29.35578311 14.57967588 -27.9705269 7.15710587 -22 1 C-15.9327335 -3.04484433 -6.40521343 -3.66633257 0 0 Z " fill="#27272B" transform="translate(620,558)"/>
<path d="M0 0 C-0.61746094 0.03738281 -1.23492187 0.07476563 -1.87109375 0.11328125 C-8.84521873 0.65465168 -15.5579827 1.55435613 -21.375 5.6875 C-25.81230331 12.00212393 -26.4863198 18.5160964 -26.6875 26 C-26.72166016 26.87011719 -26.75582031 27.74023438 -26.79101562 28.63671875 C-26.87257983 30.75738815 -26.93798528 32.87866891 -27 35 C-27.66 35 -28.32 35 -29 35 C-29.08845016 31.85434954 -29.14086835 28.70902625 -29.1875 25.5625 C-29.21263672 24.68400391 -29.23777344 23.80550781 -29.26367188 22.90039062 C-29.35578311 14.57967588 -27.9705269 7.15710587 -22 1 C-15.9327335 -3.04484433 -6.40521343 -3.66633257 0 0 Z " fill="#27272B" transform="translate(147,558)"/>
<path d="M0 0 C20.79 0 41.58 0 63 0 C63 1.32 63 2.64 63 4 C62.01 4.33 61.02 4.66 60 5 C60 4.01 60 3.02 60 2 C40.2 2 20.4 2 0 2 C0 1.34 0 0.68 0 0 Z " fill="#060607" transform="translate(418,546)"/>
<path d="M0 0 C20.79 0 41.58 0 63 0 C63 1.32 63 2.64 63 4 C62.01 4.33 61.02 4.66 60 5 C60 4.01 60 3.02 60 2 C40.2 2 20.4 2 0 2 C0 1.34 0 0.68 0 0 Z " fill="#060607" transform="translate(36,546)"/>
<path d="M0 0 C0.66 0 1.32 0 2 0 C4.43160605 3.36683915 5 4.73350364 5 9 C-6.55 9 -18.1 9 -30 9 C-30 8.01 -30 7.02 -30 6 C-19.77 6 -9.54 6 1 6 C0.67 4.02 0.34 2.04 0 0 Z " fill="#272728" transform="translate(218,604)"/>
<path d="M0 0 C-5.61 5.61 -11.22 11.22 -17 17 C-17.95891957 13.16432171 -18.10177189 10.17718859 -18.0625 6.25 C-18.05347656 5.07953125 -18.04445313 3.9090625 -18.03515625 2.703125 C-18.02355469 1.81109375 -18.01195312 0.9190625 -18 0 C-17.34 0 -16.68 0 -16 0 C-16 1.65 -16 3.3 -16 5 C-15.34 5 -14.68 5 -14 5 C-14 5.66 -14 6.32 -14 7 C-13.01 7 -12.02 7 -11 7 C-11 6.34 -11 5.68 -11 5 C-10.34 5 -9.68 5 -9 5 C-9 4.34 -9 3.68 -9 3 C-8.34 3 -7.68 3 -7 3 C-7 2.34 -7 1.68 -7 1 C-3.375 -1.125 -3.375 -1.125 0 0 Z " fill="#8D87B3" transform="translate(312,266)"/>
<path d="M0 0 C2.15303658 2.15303658 2.74224367 3.56045357 3.8125 6.375 C5.75799259 11.40695077 7.83439508 16.37297668 9.94921875 21.3359375 C10.82716046 23.56179716 11.4968369 25.66665023 12 28 C11.34 28 10.68 28 10 28 C9.67 28.99 9.34 29.98 9 31 C8.18710947 28.72930578 7.37467262 26.45845099 6.5625 24.1875 C6.21735352 23.22360352 6.21735352 23.22360352 5.86523438 22.24023438 C4.88582149 19.50071717 3.92004638 16.76013914 3 14 C2.34 14 1.68 14 1 14 C0.83081732 12.41693353 0.66476064 10.83353281 0.5 9.25 C0.4071875 8.36828125 0.314375 7.4865625 0.21875 6.578125 C0 4 0 4 0 0 Z " fill="#424247" transform="translate(208,576)"/>
<path d="M0 0 C0.52464844 0.13277344 1.04929687 0.26554688 1.58984375 0.40234375 C9.9889956 2.31695906 18.42390121 2.62193532 27 3 C27 3.66 27 4.32 27 5 C22.88560093 6.13640686 18.87076694 6.25778651 14.625 6.3125 C13.8825 6.34150391 13.14 6.37050781 12.375 6.40039062 C6.99950431 6.46212335 4.11367644 5.51947873 0 2 C0 1.34 0 0.68 0 0 Z " fill="#3F3E43" transform="translate(531,607)"/>
<path d="M0 0 C3 1 3 1 3.94921875 2.84765625 C4.19285156 3.57855469 4.43648438 4.30945313 4.6875 5.0625 C4.93886719 5.79597656 5.19023437 6.52945313 5.44921875 7.28515625 C5.63097656 7.85105469 5.81273437 8.41695312 6 9 C7.98491642 8.73323796 7.98491642 8.73323796 10 8 C10.33 7.01 10.66 6.02 11 5 C10.63495936 10.66442374 9.9445679 15.00703705 7 20 C5.05892664 17.08838996 3.74501003 14.33771358 2.375 11.125 C1.92898438 10.09632813 1.48296875 9.06765625 1.0234375 8.0078125 C0.0346625 5.10187072 -0.21288192 3.0363684 0 0 Z " fill="#2E2E32" transform="translate(451,591)"/>
<path d="M0 0 C3 1 3 1 3.94921875 2.84765625 C4.19285156 3.57855469 4.43648438 4.30945313 4.6875 5.0625 C4.93886719 5.79597656 5.19023438 6.52945313 5.44921875 7.28515625 C5.63097656 7.85105469 5.81273438 8.41695312 6 9 C7.98491642 8.73323796 7.98491642 8.73323796 10 8 C10.33 7.01 10.66 6.02 11 5 C10.63495936 10.66442374 9.9445679 15.00703705 7 20 C5.05892664 17.08838996 3.74501003 14.33771358 2.375 11.125 C1.92898437 10.09632813 1.48296875 9.06765625 1.0234375 8.0078125 C0.0346625 5.10187072 -0.21288192 3.0363684 0 0 Z " fill="#2E2E32" transform="translate(69,591)"/>
<path d="M0 0 C0.99 0 1.98 0 3 0 C7.10514079 9.87868105 10.96659887 19.24419227 12 30 C8.85820838 28.42910419 8.72533915 25.817962 7.625 22.5625 C5.84248532 17.36172786 3.93850877 12.24803097 1.796875 7.18359375 C0.93092458 4.81071982 0.43667668 2.48469029 0 0 Z " fill="#28272B" transform="translate(409,546)"/>
<path d="M0 0 C0.99 0 1.98 0 3 0 C7.10514079 9.87868105 10.96659887 19.24419227 12 30 C8.85820838 28.42910419 8.72533915 25.817962 7.625 22.5625 C5.84248532 17.36172786 3.93850877 12.24803097 1.796875 7.18359375 C0.93092458 4.81071982 0.43667668 2.48469029 0 0 Z " fill="#28272B" transform="translate(27,546)"/>
<path d="M0 0 C0.33 0 0.66 0 1 0 C1 6.27 1 12.54 1 19 C1.66 19 2.32 19 3 19 C3 12.73 3 6.46 3 0 C3.33 0 3.66 0 4 0 C4.01981934 0.62455078 4.03963867 1.24910156 4.06005859 1.89257812 C4.15616932 4.76209381 4.26549487 7.63096547 4.375 10.5 C4.4059375 11.48226562 4.436875 12.46453125 4.46875 13.4765625 C4.70047539 19.26969718 5.36952223 24.43251492 7 30 C6.01 30.33 5.02 30.66 4 31 C-1.71158873 21.54018117 -0.38088352 10.61493059 0 0 Z " fill="#65646A" transform="translate(590,574)"/>
<path d="M0 0 C0.33 0 0.66 0 1 0 C1 6.27 1 12.54 1 19 C1.66 19 2.32 19 3 19 C3 12.73 3 6.46 3 0 C3.33 0 3.66 0 4 0 C4.01981934 0.62455078 4.03963867 1.24910156 4.06005859 1.89257812 C4.15616932 4.76209381 4.26549487 7.63096547 4.375 10.5 C4.4059375 11.48226562 4.436875 12.46453125 4.46875 13.4765625 C4.70047539 19.26969718 5.36952223 24.43251492 7 30 C6.01 30.33 5.02 30.66 4 31 C-1.71158873 21.54018117 -0.38088352 10.61493059 0 0 Z " fill="#65646A" transform="translate(117,574)"/>
<path d="M0 0 C1.8871875 0.433125 1.8871875 0.433125 3.8125 0.875 C6.49884191 1.49035478 9.14067008 2.01971295 11.87109375 2.40234375 C17.94881255 3.26823313 21.21577956 4.04136632 25 9 C19.72684667 8.5547115 14.98229776 7.91626837 10 6 C10 5.34 10 4.68 10 4 C9.36191406 3.87882813 8.72382812 3.75765625 8.06640625 3.6328125 C7.24011719 3.46523438 6.41382813 3.29765625 5.5625 3.125 C4.73878906 2.96257813 3.91507813 2.80015625 3.06640625 2.6328125 C2.38449219 2.42398438 1.70257812 2.21515625 1 2 C0.67 1.34 0.34 0.68 0 0 Z " fill="#343437" transform="translate(540,581)"/>
<path d="M0 0 C0 0.99 0 1.98 0 3 C-3.69900008 2.11223998 -7.34550461 1.05418136 -11 0 C-11 -0.66 -11 -1.32 -11 -2 C-15.62 -1.67 -20.24 -1.34 -25 -1 C-25 -1.66 -25 -2.32 -25 -3 C-16.23445476 -5.61689822 -7.68365112 -4.82111443 0 0 Z " fill="#151517" transform="translate(565,560)"/>
<path d="M0 0 C0.99 0.99 1.98 1.98 3 3 C1.3186083 9.48707154 -0.53062327 15.7677635 -3 22 C-3.99 21.67 -4.98 21.34 -6 21 C-5.4811548 16.07097056 -3.8750566 11.97393686 -1.9375 7.46484375 C-0.99389862 4.98395845 -0.4469505 2.611867 0 0 Z " fill="#3C3B41" transform="translate(466,578)"/>
<path d="M0 0 C0.99 0.99 1.98 1.98 3 3 C1.3186083 9.48707154 -0.53062327 15.7677635 -3 22 C-3.99 21.67 -4.98 21.34 -6 21 C-5.4811548 16.07097056 -3.8750566 11.97393686 -1.9375 7.46484375 C-0.99389862 4.98395845 -0.4469505 2.611867 0 0 Z " fill="#3C3B41" transform="translate(84,578)"/>
<path d="M0 0 C2.61943903 2.61943903 3.44197838 5.57473973 4.625 9 C4.85445313 9.64195312 5.08390625 10.28390625 5.3203125 10.9453125 C7 15.72442336 7 15.72442336 7 18 C6.34 18 5.68 18 5 18 C4.67 18.99 4.34 19.98 4 21 C3.566875 19.80375 3.13375 18.6075 2.6875 17.375 C1.68733244 14.66641225 0.62835782 12.30980739 -0.75 9.75 C-2 7 -2 7 -1.6875 4.625 C-1.460625 4.08875 -1.23375 3.5525 -1 3 C-0.34 4.65 0.32 6.3 1 8 C0.67 5.36 0.34 2.72 0 0 Z " fill="#5D5C63" transform="translate(419,567)"/>
<path d="M0 0 C2.61943903 2.61943903 3.44197838 5.57473973 4.625 9 C4.85445312 9.64195312 5.08390625 10.28390625 5.3203125 10.9453125 C7 15.72442336 7 15.72442336 7 18 C6.34 18 5.68 18 5 18 C4.67 18.99 4.34 19.98 4 21 C3.566875 19.80375 3.13375 18.6075 2.6875 17.375 C1.68733244 14.66641225 0.62835782 12.30980739 -0.75 9.75 C-2 7 -2 7 -1.6875 4.625 C-1.460625 4.08875 -1.23375 3.5525 -1 3 C-0.34 4.65 0.32 6.3 1 8 C0.67 5.36 0.34 2.72 0 0 Z " fill="#5D5C63" transform="translate(37,567)"/>
<path d="M0 0 C0.99 0.33 1.98 0.66 3 1 C1.838389 4.48483299 0.48842447 5.47171938 -2.6796875 7.21484375 C-7.30011495 8.77832173 -12.18892442 8.28439856 -17 8 C-17 7.34 -17 6.68 -17 6 C-15.78763672 5.85304688 -15.78763672 5.85304688 -14.55078125 5.703125 C-8.51486746 4.85853393 -4.57493735 4.2797801 0 0 Z " fill="#26262A" transform="translate(627,605)"/>
<path d="M0 0 C0.99 0.33 1.98 0.66 3 1 C1.838389 4.48483299 0.48842447 5.47171938 -2.6796875 7.21484375 C-7.30011495 8.77832173 -12.18892442 8.28439856 -17 8 C-17 7.34 -17 6.68 -17 6 C-15.78763672 5.85304688 -15.78763672 5.85304688 -14.55078125 5.703125 C-8.51486746 4.85853393 -4.57493735 4.2797801 0 0 Z " fill="#26262A" transform="translate(154,605)"/>
<path d="M0 0 C0.33 0 0.66 0 1 0 C0.67 8.25 0.34 16.5 0 25 C-0.66 25 -1.32 25 -2 25 C-2.05834353 21.77090994 -2.09371115 18.54195662 -2.125 15.3125 C-2.14175781 14.40048828 -2.15851562 13.48847656 -2.17578125 12.54882812 C-2.20936169 7.93151773 -2.23556185 4.18067669 0 0 Z " fill="#141315" transform="translate(593,568)"/>
<path d="M0 0 C0.33 0 0.66 0 1 0 C0.67 8.25 0.34 16.5 0 25 C-0.66 25 -1.32 25 -2 25 C-2.05834353 21.77090994 -2.09371115 18.54195662 -2.125 15.3125 C-2.14175781 14.40048828 -2.15851563 13.48847656 -2.17578125 12.54882812 C-2.20936169 7.93151773 -2.23556185 4.18067669 0 0 Z " fill="#141315" transform="translate(120,568)"/>
<path d="M0 0 C0.99 0.680625 0.99 0.680625 2 1.375 C5.04499317 3.0243713 7.65324098 3.77250603 10.99609375 4.52734375 C13.72712513 5.17150515 16.35351207 6.07372922 19 7 C15.67465243 8.10844919 13.37817425 7.84454356 10 7 C11.98 7.66 13.96 8.32 16 9 C12.51261488 10.23925303 10.75296632 9.7983396 7.4375 8.25 C6.67308594 7.90453125 5.90867187 7.5590625 5.12109375 7.203125 C2.98022517 5.98878334 1.52506919 4.92948051 0 3 C0 2.01 0 1.02 0 0 Z " fill="#5A595F" transform="translate(534,576)"/>
<path d="M0 0 C0 0.66 0 1.32 0 2 C0.66 1.67 1.32 1.34 2 1 C4.04055005 0.92934383 6.08334257 0.91578024 8.125 0.9375 C9.22070312 0.94652344 10.31640625 0.95554687 11.4453125 0.96484375 C12.28835938 0.97644531 13.13140625 0.98804688 14 1 C14 1.33 14 1.66 14 2 C12.44539062 2.16435547 12.44539062 2.16435547 10.859375 2.33203125 C9.48950736 2.49153639 8.11971963 2.65172884 6.75 2.8125 C6.06808594 2.88275391 5.38617187 2.95300781 4.68359375 3.02539062 C0.55266811 3.52671655 -1.83198757 4.3478795 -5 7 C-5.99 7 -6.98 7 -8 7 C-6.47663111 3.31852519 -4.31953005 0 0 0 Z " fill="#4C4B54" transform="translate(540,557)"/>
<path d="M0 0 C0.33 0 0.66 0 1 0 C1.36263859 5.8022175 0.25684543 9.63999211 -2 15 C-2.66 15 -3.32 15 -4 15 C-4.33 12.69 -4.66 10.38 -5 8 C-4.01 8 -3.02 8 -2 8 C-1.855625 6.865625 -1.71125 5.73125 -1.5625 4.5625 C-1 1 -1 1 0 0 Z " fill="#212124" transform="translate(436,596)"/>
<path d="M0 0 C0.33 0 0.66 0 1 0 C1.36263859 5.8022175 0.25684543 9.63999211 -2 15 C-2.66 15 -3.32 15 -4 15 C-4.33 12.69 -4.66 10.38 -5 8 C-4.01 8 -3.02 8 -2 8 C-1.855625 6.865625 -1.71125 5.73125 -1.5625 4.5625 C-1 1 -1 1 0 0 Z " fill="#212124" transform="translate(54,596)"/>
<path d="M0 0 C0.33 0 0.66 0 1 0 C2.43680971 6.13909603 1.32637691 10.20377279 -1 16 C-1.99 15.67 -2.98 15.34 -4 15 C-3.34728444 11.48294042 -2.48606976 8.10674923 -1.4375 4.6875 C-1.16808594 3.80449219 -0.89867187 2.92148437 -0.62109375 2.01171875 C-0.41613281 1.34785156 -0.21117187 0.68398438 0 0 Z " fill="#35343A" transform="translate(471,565)"/>
<path d="M0 0 C0.33 0 0.66 0 1 0 C2.43680971 6.13909603 1.32637691 10.20377279 -1 16 C-1.99 15.67 -2.98 15.34 -4 15 C-3.34728444 11.48294042 -2.48606976 8.10674923 -1.4375 4.6875 C-1.16808594 3.80449219 -0.89867188 2.92148437 -0.62109375 2.01171875 C-0.41613281 1.34785156 -0.21117188 0.68398438 0 0 Z " fill="#35343A" transform="translate(89,565)"/>
<path d="M0 0 C0.33 0 0.66 0 1 0 C1.3152595 5.98993047 0.68219822 9.63560356 -2 15 C-3.66730236 12.45000816 -4.00952602 11.14924095 -3.8125 8.0625 C-2.97555303 4.90785373 -1.87660836 2.65852851 0 0 Z " fill="#3A393F" transform="translate(440,585)"/>
<path d="M0 0 C0.33 0 0.66 0 1 0 C1.3152595 5.98993047 0.68219822 9.63560356 -2 15 C-3.66730236 12.45000816 -4.00952602 11.14924095 -3.8125 8.0625 C-2.97555303 4.90785373 -1.87660836 2.65852851 0 0 Z " fill="#3A393F" transform="translate(58,585)"/>
<path d="M0 0 C0.99 0.66 1.98 1.32 3 2 C2.625 3.9375 2.625 3.9375 2 6 C1.01 6.495 1.01 6.495 0 7 C-0.33 5.68 -0.66 4.36 -1 3 C-1.33 3.99 -1.66 4.98 -2 6 C-4.0625 6.6875 -4.0625 6.6875 -6 7 C-5.8125 4.625 -5.8125 4.625 -5 2 C-2.625 0.5625 -2.625 0.5625 0 0 Z " fill="#8F89B4" transform="translate(312,258)"/>
<path d="M0 0 C4.44870215 -0.39253254 7.14243493 0.84694043 11 3 C10.67 3.99 10.34 4.98 10 6 C4.72 5.01 -0.56 4.02 -6 3 C-6 2.67 -6 2.34 -6 2 C-4.02 1.67 -2.04 1.34 0 1 C0 0.67 0 0.34 0 0 Z " fill="#404047" transform="translate(616,556)"/>
<path d="M0 0 C4.44870215 -0.39253254 7.14243493 0.84694043 11 3 C10.67 3.99 10.34 4.98 10 6 C4.72 5.01 -0.56 4.02 -6 3 C-6 2.67 -6 2.34 -6 2 C-4.02 1.67 -2.04 1.34 0 1 C0 0.67 0 0.34 0 0 Z " fill="#404047" transform="translate(143,556)"/>
<path d="M0 0 C-1.3094668 1.33631236 -2.62265485 2.66897925 -3.9375 4 C-4.66839844 4.7425 -5.39929688 5.485 -6.15234375 6.25 C-8 8 -8 8 -9 8 C-9 6.35 -9 4.7 -9 3 C-8.34 3 -7.68 3 -7 3 C-7 2.34 -7 1.68 -7 1 C-3.375 -1.125 -3.375 -1.125 0 0 Z " fill="#9791BA" transform="translate(312,266)"/>
<path d="M0 0 C3.79379058 1.49041773 5.68343758 3.69062512 8 7 C8 7.66 8 8.32 8 9 C4.11980141 7.74155722 2.0588158 6.57583797 0 3 C0 2.01 0 1.02 0 0 Z " fill="#2E2E32" transform="translate(595,603)"/>
<path d="M0 0 C3.79379058 1.49041773 5.68343758 3.69062512 8 7 C8 7.66 8 8.32 8 9 C4.11980141 7.74155722 2.0588158 6.57583797 0 3 C0 2.01 0 1.02 0 0 Z " fill="#2E2E32" transform="translate(122,603)"/>
<path d="M0 0 C2 3 2 3 1.6875 5.5625 C1 8 1 8 0 10 C-1.32 10 -2.64 10 -4 10 C-3.52449439 8.51965236 -3.04448784 7.04074979 -2.5625 5.5625 C-2.29566406 4.73878906 -2.02882812 3.91507813 -1.75390625 3.06640625 C-1 1 -1 1 0 0 Z " fill="#414045" transform="translate(193,570)"/>
<path d="M0 0 C2.625 0.75 2.625 0.75 5 2 C5.66 2.33 6.32 2.66 7 3 C7 3.99 7 4.98 7 6 C3.30099992 5.11223998 -0.34550461 4.05418136 -4 3 C-2.3125 1.375 -2.3125 1.375 0 0 Z " fill="#45454B" transform="translate(558,557)"/>
<path d="M0 0 C2.375 -0.125 2.375 -0.125 5 0 C7 2 7 2 7.1953125 4.3828125 C7.17210937 5.28773438 7.14890625 6.19265625 7.125 7.125 C7.10695313 8.03507813 7.08890625 8.94515625 7.0703125 9.8828125 C7.04710937 10.58148437 7.02390625 11.28015625 7 12 C6.67 12 6.34 12 6 12 C5.62875 10.4221875 5.62875 10.4221875 5.25 8.8125 C4.23299214 5.1866459 2.54626571 2.80089228 0 0 Z " fill="#1F1F21" transform="translate(561,590)"/>
<path d="M0 0 C2.86724686 0.57344937 3.8614515 0.8614515 6 3 C5.75 5.0625 5.75 5.0625 5 7 C4.01 7.495 4.01 7.495 3 8 C2.01 7.34 1.02 6.68 0 6 C0.66 6 1.32 6 2 6 C1.34 4.02 0.68 2.04 0 0 Z " fill="#2A292C" transform="translate(625,560)"/>
<path d="M0 0 C2.86724686 0.57344937 3.8614515 0.8614515 6 3 C5.75 5.0625 5.75 5.0625 5 7 C4.01 7.495 4.01 7.495 3 8 C2.01 7.34 1.02 6.68 0 6 C0.66 6 1.32 6 2 6 C1.34 4.02 0.68 2.04 0 0 Z " fill="#2A292C" transform="translate(152,560)"/>
<path d="M0 0 C0.99 0 1.98 0 3 0 C2.71125 0.70125 2.4225 1.4025 2.125 2.125 C0.97866412 5.05452503 -0.02625654 8.00921653 -1 11 C-2.34110539 8.79112053 -3.06609767 7.54530581 -2.75 4.9375 C-2 3 -2 3 0 0 Z " fill="#313134" transform="translate(596,561)"/>
<path d="M0 0 C0.99 0 1.98 0 3 0 C2.71125 0.70125 2.4225 1.4025 2.125 2.125 C0.97866412 5.05452503 -0.02625654 8.00921653 -1 11 C-2.34110539 8.79112053 -3.06609767 7.54530581 -2.75 4.9375 C-2 3 -2 3 0 0 Z " fill="#313134" transform="translate(123,561)"/>
<path d="M0 0 C4.84688192 0.78175515 9.3766367 2.39844278 14 4 C14 4.33 14 4.66 14 5 C12.04081032 4.94008594 10.08248471 4.85132862 8.125 4.75 C7.03445313 4.70359375 5.94390625 4.6571875 4.8203125 4.609375 C2 4 2 4 0.6171875 1.953125 C0.41351562 1.30859375 0.20984375 0.6640625 0 0 Z " fill="#1D1D20" transform="translate(531,607)"/>
<path d="M0 0 C2.6855594 2.6855594 3.06049974 5.37621328 4 9 C3.34 9 2.68 9 2 9 C2.33 10.65 2.66 12.3 3 14 C2.34 14 1.68 14 1 14 C0.83081732 12.41693353 0.66476064 10.83353281 0.5 9.25 C0.4071875 8.36828125 0.314375 7.4865625 0.21875 6.578125 C0 4 0 4 0 0 Z " fill="#605F67" transform="translate(208,576)"/>
<path d="M0 0 C0.99 0 1.98 0 3 0 C3.99 2.97 4.98 5.94 6 9 C5.01 9 4.02 9 3 9 C1.35173889 6.03312999 0.55728913 3.34373475 0 0 Z " fill="#39383D" transform="translate(409,546)"/>
<path d="M0 0 C0.99 0 1.98 0 3 0 C3.99 2.97 4.98 5.94 6 9 C5.01 9 4.02 9 3 9 C1.35173889 6.03312999 0.55728913 3.34373475 0 0 Z " fill="#39383D" transform="translate(27,546)"/>
<path d="M0 0 C0.66 0.33 1.32 0.66 2 1 C2 1.99 2 2.98 2 4 C1.34 4 0.68 4 0 4 C0 4.66 0 5.32 0 6 C-1.65 6 -3.3 6 -5 6 C-5 5.34 -5 4.68 -5 4 C-3.37373596 2.61767557 -1.7074998 1.28062485 0 0 Z " fill="#46464C" transform="translate(609,579)"/>
<path d="M0 0 C0.66 0.33 1.32 0.66 2 1 C2 1.99 2 2.98 2 4 C1.34 4 0.68 4 0 4 C0 4.66 0 5.32 0 6 C-1.65 6 -3.3 6 -5 6 C-5 5.34 -5 4.68 -5 4 C-3.37373596 2.61767557 -1.7074998 1.28062485 0 0 Z " fill="#46464C" transform="translate(136,579)"/>
<path d="M0 0 C2.18975773 3.28463659 2.99806563 6.20696275 4 10 C3.34 10 2.68 10 2 10 C1.67 10.99 1.34 11.98 1 13 C0.83052421 11.58366664 0.66454493 10.16691467 0.5 8.75 C0.4071875 7.96109375 0.314375 7.1721875 0.21875 6.359375 C0 4 0 4 0 0 Z " fill="#515058" transform="translate(449,581)"/>
<path d="M0 0 C2.18975773 3.28463659 2.99806563 6.20696275 4 10 C3.34 10 2.68 10 2 10 C1.67 10.99 1.34 11.98 1 13 C0.83052421 11.58366664 0.66454493 10.16691467 0.5 8.75 C0.4071875 7.96109375 0.314375 7.1721875 0.21875 6.359375 C0 4 0 4 0 0 Z " fill="#515058" transform="translate(67,581)"/>
<path d="M0 0 C2.18975773 3.28463659 2.99806563 6.20696275 4 10 C3.34 10 2.68 10 2 10 C1.67 10.99 1.34 11.98 1 13 C0.83052421 11.58366664 0.66454493 10.16691467 0.5 8.75 C0.4071875 7.96109375 0.314375 7.1721875 0.21875 6.359375 C0 4 0 4 0 0 Z " fill="#515058" transform="translate(422,575)"/>
<path d="M0 0 C2.18975773 3.28463659 2.99806563 6.20696275 4 10 C3.34 10 2.68 10 2 10 C1.67 10.99 1.34 11.98 1 13 C0.83052421 11.58366664 0.66454493 10.16691467 0.5 8.75 C0.4071875 7.96109375 0.314375 7.1721875 0.21875 6.359375 C0 4 0 4 0 0 Z " fill="#515058" transform="translate(40,575)"/>
<path d="M0 0 C1.39195915 4.17587745 -0.17676781 6.13474776 -2 10 C-2.66 9.01 -3.32 8.02 -4 7 C-3.25 3.875 -3.25 3.875 -2 1 C-1.34 0.67 -0.68 0.34 0 0 Z " fill="#2A292E" transform="translate(479,550)"/>
<path d="M0 0 C1.39195915 4.17587745 -0.17676781 6.13474776 -2 10 C-2.66 9.01 -3.32 8.02 -4 7 C-3.25 3.875 -3.25 3.875 -2 1 C-1.34 0.67 -0.68 0.34 0 0 Z " fill="#2A292E" transform="translate(97,550)"/>
<path d="M0 0 C0.66 1.32 1.32 2.64 2 4 C2.99 3.34 3.98 2.68 5 2 C4.67 3.65 4.34 5.3 4 7 C3.01 7 2.02 7 1 7 C0.67 7.99 0.34 8.98 0 10 C0 6.7 0 3.4 0 0 Z " fill="#4E4D55" transform="translate(430,597)"/>
<path d="M0 0 C0.66 1.32 1.32 2.64 2 4 C2.99 3.34 3.98 2.68 5 2 C4.67 3.65 4.34 5.3 4 7 C3.01 7 2.02 7 1 7 C0.67 7.99 0.34 8.98 0 10 C0 6.7 0 3.4 0 0 Z " fill="#4E4D55" transform="translate(48,597)"/>
<path d="M0 0 C0.33 0 0.66 0 1 0 C0.88590407 1.45922693 0.75834456 2.91740598 0.625 4.375 C0.55539062 5.18710937 0.48578125 5.99921875 0.4140625 6.8359375 C0 9 0 9 -2 11 C-2 8.36 -2 5.72 -2 3 C-1.34 3 -0.68 3 0 3 C0 2.01 0 1.02 0 0 Z " fill="#252429" transform="translate(461,596)"/>
<path d="M0 0 C0.33 0 0.66 0 1 0 C0.88590407 1.45922693 0.75834456 2.91740598 0.625 4.375 C0.55539063 5.18710937 0.48578125 5.99921875 0.4140625 6.8359375 C0 9 0 9 -2 11 C-2 8.36 -2 5.72 -2 3 C-1.34 3 -0.68 3 0 3 C0 2.01 0 1.02 0 0 Z " fill="#252429" transform="translate(79,596)"/>
<path d="M0 0 C0.66 0 1.32 0 2 0 C4.27678571 6.96428571 4.27678571 6.96428571 3 11 C2.49384702 9.73160474 1.99530901 8.46016898 1.5 7.1875 C1.2215625 6.47980469 0.943125 5.77210938 0.65625 5.04296875 C0 3 0 3 0 0 Z " fill="#1D1D20" transform="translate(210,585)"/>
<path d="M0 0 C1.5 1 1.5 1 3 3 C3.27345479 5.71846235 3.13491285 8.25677199 3 11 C0.87953208 7.46588679 0.46800711 4.05606165 0 0 Z " fill="#19191C" transform="translate(427,593)"/>
<path d="M0 0 C1.5 1 1.5 1 3 3 C3.27345479 5.71846235 3.13491285 8.25677199 3 11 C0.87953208 7.46588679 0.46800711 4.05606165 0 0 Z " fill="#19191C" transform="translate(45,593)"/>
<path d="M0 0 C0.66 0.33 1.32 0.66 2 1 C-0.31 3.31 -2.62 5.62 -5 8 C-5.33 7.34 -5.66 6.68 -6 6 C-4 4 -2 2 0 0 Z " fill="#C3C1C9" transform="translate(602,560)"/>
<path d="M0 0 C0.66 0.33 1.32 0.66 2 1 C-0.31 3.31 -2.62 5.62 -5 8 C-5.33 7.34 -5.66 6.68 -6 6 C-4 4 -2 2 0 0 Z " fill="#C3C1C9" transform="translate(129,560)"/>
</svg>
